<?xml version="1.0"?>
<svg xmlns="http://www.w3.org/2000/svg" viewBox="0 0 512 512" width="512" height="512"><g id="outline"><path d="M60.422,128.845a8,8,0,1,0,7.156,14.31l16-8A8,8,0,0,0,88,128V88a8,8,0,0,0-8-8H40a8,8,0,0,0-8,8v27.056l-11.578,5.789a8,8,0,0,0,7.156,14.31l16-8A8,8,0,0,0,48,120V96H72v27.056Z"/><path d="M402.824,80.3a8,8,0,0,0,11.314-.1l12.54-12.757a8,8,0,0,0,1.862-8.2L415.567,21.405a8,8,0,0,0-10.162-4.972L367.567,29.405A8,8,0,0,0,362.6,39.567l8.775,25.594L362.3,74.392a8,8,0,1,0,11.41,11.216l12.541-12.756a8,8,0,0,0,1.862-8.2l-7.784-22.7,22.7-7.783L411.8,59.756l-9.074,9.23A8,8,0,0,0,402.824,80.3Z"/><path d="M432.006,200a7.973,7.973,0,0,0,3.572-.847l16-8A8,8,0,0,0,456,184V164.944l11.578-5.789a8,8,0,1,0-7.156-14.31l-16,8A8,8,0,0,0,440,160v19.056l-11.578,5.789A8,8,0,0,0,432.006,200Z"/><path d="M487.288,312.312l-40-8.151a7.979,7.979,0,0,0-5.942,1.122l-20.1,13-68.665,7.506-.571-84.39,3.1-8.418,26.305,12.377a7.994,7.994,0,0,0,10.644-3.832l13.629-28.95a8,8,0,0,0-3.833-10.646l-60.478-28.452a32.041,32.041,0,1,0-21.372,43.689c.314-.081.622-.176.932-.266l19.641,9.242-4.085,11.091a8,8,0,0,0-.493,2.819l.592,87.483-15.549,1.7-.514-35.972a69.842,69.842,0,0,0-38.194-61.372l-21.322-10.875-.062-.032-3.7-1.882v-28.9A39.764,39.764,0,0,0,264,168V127.718A28,28,0,0,0,260,72H214a54.062,54.062,0,0,0-54,54v26a24.028,24.028,0,0,0,24,24h.805a39.875,39.875,0,0,0,8.445,17.549V200H171.02a127.289,127.289,0,0,0-66.732,18.887L35.18,261.416a33.135,33.135,0,0,0-12.3,13.446l-3.359,6.718a33.2,33.2,0,0,0,28.558,48.063A79.973,79.973,0,0,0,105.25,455.6V488a8,8,0,0,0,8,8H256a8,8,0,0,0,7.973-8.665l-7.286-87.377a63.245,63.245,0,0,0,5.057-11.081l1.736,6.079A18.088,18.088,0,0,0,280.79,408h24.46a7.886,7.886,0,0,0,.8-.04h0l.036,0,31.03-3.1.563,83.2,16-.108-.551-81.408c.288-.039.576-.071.863-.129l32.058-6.449a8,8,0,0,0,7.2-7.96V369.613l29.893-3.271S452.846,376,453.69,376a7.989,7.989,0,0,0,3.319-.721l35.1-16a8,8,0,0,0,4.644-8.053l-3.1-31.85A8,8,0,0,0,487.288,312.312ZM366.209,202.843,387.8,213l-6.815,14.475-20.329-9.566Zm-50.2-1.167A16,16,0,1,1,327.5,182.184,15.878,15.878,0,0,1,316.005,201.676Zm-48.38,62.216a8,8,0,0,0,6.3-10.344L270.848,244l4.218,2.151a53.882,53.882,0,0,1,29.465,47.348l.536,37.489-38.622,4.222,5.316-21.265a8,8,0,0,0-15.522-3.88l-4.621,18.484A64.279,64.279,0,0,0,211.3,304.808l12.841-33.67ZM127.908,363.564a8.02,8.02,0,0,0-2.22-2.22L68.734,323.372c.021-.014.042-.027.063-.042l23-13.474,39.8,39.8a8.016,8.016,0,0,0,4.087,2.188l33.57,6.719V384H141.521Zm7.173,35.347a23.981,23.981,0,0,1-29.416-31.686l9.815,6.544,13.336,20.017A14.007,14.007,0,0,0,135.081,398.911Zm6.113-62.28-24.538-24.539a63.408,63.408,0,0,1,42.287,19.125,8,8,0,0,0,10.946.458,47.964,47.964,0,0,1,68.991,6.545l-60.574,6.62a13.916,13.916,0,0,0-4.316-1.645ZM248,168a24,24,0,0,1-48,0V128h48Zm3.058,66.739,4.8,14.893-18.732,3.122Zm-41.808-29.57a39.9,39.9,0,0,0,32-1.085v17.183l-19.8,25.6-12.2-40.054ZM184,160a8,8,0,0,1,0-16Zm8-48a8,8,0,0,0-8,8v8a23.889,23.889,0,0,0-8,1.376V126a38.043,38.043,0,0,1,38-38h46a12,12,0,0,1,0,24H192Zm4.976,109.437,7.16,23.5-20.145-13.429ZM38.9,310.239a17.227,17.227,0,0,1-5.074-21.5l3.364-6.727c1.434-2.876,75.483-49.5,75.483-49.5A111.3,111.3,0,0,1,171.02,216h6.86L165.4,225.679a8,8,0,0,0,.466,12.977l42.688,28.459-14.212,37.264a64.019,64.019,0,0,0-29.172,10.77,79.246,79.246,0,0,0-51.5-19.14l26.677-17.3a8,8,0,1,0-8.706-13.424s-77.612,48.021-80.83,48.322l-.028,0A17.112,17.112,0,0,1,38.9,310.239ZM49.25,376a63.773,63.773,0,0,1,12.542-38.027l30.38,20.256A39.989,39.989,0,0,0,159.984,400H171.25a14.008,14.008,0,0,0,12.366-7.453l62.233-6.807a47.987,47.987,0,0,1-68.871,23.665,8,8,0,0,0-10.683,2.41A64,64,0,0,1,49.25,376ZM184,480H121.25V455.593A79.958,79.958,0,0,0,175.3,426.5,63.848,63.848,0,0,0,184,429.617Zm16,0V431.967c.417.008.833.033,1.25.033a63.7,63.7,0,0,0,40.828-14.685L247.306,480Zm97.512-88H280.79a2.015,2.015,0,0,1-1.928-1.447l-2.333-8.169,21.38-2.338ZM185.25,376.273v-16.1L336.7,343.62l.109,16.076Zm128.3,14.857.426-12.841,22.943-2.51.088,13.009Zm32.579-180.057-9.507-4.473a32.2,32.2,0,0,0,6.819-14.468l8.237,3.875Zm31.117,174.368-24,4.8V366.862c0-.054,0-.108,0-.162v-.141l24-4.8Zm75.978-26.02L426.508,350.6a7.953,7.953,0,0,0-3.378-.356l-32.045,3.507a15.946,15.946,0,0,0-16.978-7.686l-21.36,4.272-.058-8.468,72.181-7.891a7.967,7.967,0,0,0,3.475-1.235l18.948-12.256,31.008,6.318,1.973,20.281Z"/></g></svg>
